<?xml version="1.0" encoding="UTF-8"?>
<!DOCTYPE svg PUBLIC "-//W3C//DTD SVG 1.1//EN" "http://www.w3.org/Graphics/SVG/1.1/DTD/svg11.dtd">
<!-- Creator: CorelDRAW -->
<svg xmlns="http://www.w3.org/2000/svg" xml:space="preserve" width="15.5cm" height="3.5cm" version="1.1" style="shape-rendering:geometricPrecision; text-rendering:geometricPrecision; image-rendering:optimizeQuality; fill-rule:evenodd; clip-rule:evenodd"
viewBox="0 0 15500 3500"
 xmlns:xlink="http://www.w3.org/1999/xlink"
 xmlns:xodm="http://www.corel.com/coreldraw/odm/2003">
 <defs>
  <style type="text/css">
   <![CDATA[
    .fil1 {fill:#3E4095}
    .fil0 {fill:#3E4095;fill-rule:nonzero}
   ]]>
  </style>
 </defs>
 <g id="Layer_x0020_1">
  <metadata id="CorelCorpID_0Corel-Layer"/>
  <g id="_2638766595152">
   <g>
    <path class="fil0" d="M1410.75 720.41l-60.38 0 0 0 -0.83 -28.63 -2.42 -28.26 -3.99 -27.85 -5.51 -27.4 -7.01 -26.92 -8.44 -26.42 -9.86 -25.87 -11.23 -25.31 -12.55 -24.67 -13.85 -24.03 -15.09 -23.36 -16.31 -22.63 -17.47 -21.88 -18.61 -21.08 -19.7 -20.27 -20.75 -19.39 -21.76 -18.49 -22.74 -17.56 -23.66 -16.59 -24.54 -15.57 -25.4 -14.53 -26.2 -13.45 -26.96 -12.35 -27.7 -11.18 -28.38 -10.01 -29.03 -8.79 -29.64 -7.52 -30.21 -6.25 -30.74 -4.91 -31.25 -3.56 -31.7 -2.16 -32.13 -0.73 0 -53.82 35.19 0.79 34.76 2.38 34.27 3.9 33.74 5.39 33.17 6.85 32.52 8.26 31.87 9.65 31.14 10.97 30.38 12.28 29.58 13.53 28.72 14.75 27.84 15.93 26.9 17.07 25.92 18.17 24.9 19.24 23.84 20.25 22.73 21.25 21.58 22.19 20.39 23.1 19.15 23.98 17.87 24.81 16.55 25.6 15.19 26.35 13.77 27.09 12.31 27.75 10.82 28.39 9.28 29 7.69 29.56 6.05 30.06 4.37 30.55 2.66 30.98 0.89 31.37 0 0zm-686.04 611.45l0 -53.82 0 0 32.13 -0.73 31.7 -2.16 31.25 -3.56 30.74 -4.91 30.21 -6.25 29.64 -7.53 29.03 -8.78 28.38 -10 27.7 -11.2 26.96 -12.34 26.2 -13.46 25.4 -14.53 24.54 -15.57 23.66 -16.59 22.74 -17.56 21.76 -18.5 20.75 -19.39 19.7 -20.26 18.61 -21.09 17.47 -21.87 16.31 -22.64 15.09 -23.35 13.85 -24.03 12.55 -24.68 11.23 -25.31 9.86 -25.87 8.44 -26.42 7.01 -26.91 5.51 -27.41 3.99 -27.84 2.42 -28.26 0.83 -28.63 60.38 0 -0.89 31.37 -2.66 30.98 -4.37 30.54 -6.05 30.07 -7.69 29.55 -9.28 29 -10.82 28.39 -12.31 27.75 -13.77 27.08 -15.19 26.37 -16.55 25.59 -17.87 24.82 -19.15 23.97 -20.39 23.11 -21.58 22.18 -22.73 21.25 -23.84 20.26 -24.9 19.24 -25.92 18.17 -26.9 17.07 -27.84 15.93 -28.72 14.76 -29.58 13.52 -30.38 12.28 -31.14 10.98 -31.87 9.64 -32.52 8.27 -33.17 6.85 -33.74 5.39 -34.27 3.9 -34.76 2.38 -35.19 0.79 0 0zm-686.02 -611.45l60.38 0 0 0 0.83 28.63 2.42 28.26 3.99 27.84 5.51 27.41 7.01 26.91 8.44 26.42 9.86 25.87 11.23 25.31 12.55 24.68 13.85 24.03 15.09 23.35 16.31 22.64 17.47 21.87 18.61 21.09 19.7 20.26 20.75 19.39 21.77 18.5 22.72 17.56 23.65 16.58 24.56 15.58 25.39 14.53 26.2 13.46 26.96 12.34 27.7 11.2 28.38 10 29.03 8.78 29.64 7.53 30.2 6.25 30.74 4.91 31.25 3.56 31.7 2.16 32.13 0.73 0 53.82 -35.19 -0.79 -34.76 -2.38 -34.27 -3.9 -33.74 -5.39 -33.16 -6.85 -32.52 -8.27 -31.87 -9.64 -31.14 -10.98 -30.38 -12.28 -29.58 -13.52 -28.72 -14.76 -27.83 -15.93 -26.9 -17.06 -25.93 -18.18 -24.9 -19.24 -23.83 -20.26 -22.73 -21.25 -21.58 -22.18 -20.39 -23.11 -19.15 -23.97 -17.87 -24.82 -16.55 -25.59 -15.19 -26.37 -13.77 -27.08 -12.31 -27.75 -10.82 -28.39 -9.28 -29 -7.69 -29.55 -6.05 -30.07 -4.37 -30.54 -2.66 -30.98 -0.89 -31.37 0 0zm686.02 -611.44l0 53.82 0 0 -32.13 0.73 -31.7 2.16 -31.25 3.56 -30.74 4.91 -30.2 6.25 -29.64 7.52 -29.03 8.79 -28.38 10.01 -27.7 11.18 -26.96 12.35 -26.2 13.45 -25.39 14.53 -24.56 15.58 -23.65 16.58 -22.73 17.56 -21.76 18.49 -20.75 19.39 -19.7 20.27 -18.61 21.08 -17.47 21.88 -16.31 22.63 -15.09 23.36 -13.85 24.03 -12.55 24.67 -11.23 25.31 -9.86 25.87 -8.44 26.42 -7.01 26.92 -5.51 27.4 -3.99 27.85 -2.42 28.26 -0.83 28.63 -60.38 0 0.89 -31.37 2.66 -30.98 4.37 -30.55 6.05 -30.06 7.69 -29.56 9.28 -29 10.82 -28.39 12.31 -27.75 13.77 -27.09 15.19 -26.35 16.55 -25.6 17.87 -24.81 19.15 -23.98 20.39 -23.1 21.58 -22.19 22.73 -21.25 23.84 -20.25 24.89 -19.24 25.93 -18.18 26.9 -17.06 27.83 -15.93 28.72 -14.75 29.58 -13.53 30.38 -12.28 31.14 -10.97 31.87 -9.65 32.52 -8.26 33.16 -6.85 33.74 -5.39 34.27 -3.9 34.76 -2.38 35.19 -0.79 0 0z"/>
   </g>
   <path class="fil1" d="M632.34 1299.72c-119.05,-539.1 88.76,-844.22 520.25,-1010.46 -363.14,-304.16 -985.74,-174.1 -1066.43,360.64 -59.44,242.4 98.8,524.63 546.18,649.82z"/>
   <g>
    <path class="fil0" d="M2561.29 1354.32l-60.38 0 0 0 -0.83 -28.63 -2.42 -28.26 -3.99 -27.85 -5.51 -27.4 -7.01 -26.92 -8.44 -26.42 -9.86 -25.87 -11.23 -25.31 -12.55 -24.68 -13.85 -24.03 -15.09 -23.35 -16.31 -22.63 -17.47 -21.89 -18.61 -21.08 -19.7 -20.26 -20.75 -19.39 -21.76 -18.5 -22.73 -17.55 -23.66 -16.59 -24.55 -15.58 -25.39 -14.53 -26.2 -13.45 -26.96 -12.35 -27.7 -11.18 -28.38 -10.01 -29.03 -8.78 -29.64 -7.53 -30.2 -6.25 -30.74 -4.91 -31.25 -3.56 -31.7 -2.16 -32.13 -0.73 0 -53.82 35.19 0.79 34.76 2.38 34.27 3.9 33.74 5.39 33.16 6.85 32.52 8.27 31.87 9.64 31.14 10.97 30.38 12.28 29.58 13.53 28.72 14.75 27.83 15.93 26.91 17.08 25.92 18.17 24.89 19.23 23.84 20.26 22.73 21.25 21.58 22.18 20.39 23.12 19.15 23.97 17.87 24.81 16.55 25.59 15.19 26.37 13.77 27.08 12.31 27.75 10.82 28.39 9.28 29 7.69 29.56 6.05 30.06 4.37 30.55 2.66 30.98 0.89 31.37 0 0zm-686.02 611.42l0 -53.82 0 0 32.13 -0.73 31.7 -2.16 31.25 -3.56 30.74 -4.91 30.2 -6.25 29.64 -7.52 29.03 -8.79 28.38 -10.01 27.7 -11.18 26.96 -12.35 26.2 -13.45 25.39 -14.53 24.56 -15.58 23.65 -16.58 22.73 -17.56 21.76 -18.49 20.75 -19.39 19.7 -20.27 18.61 -21.08 17.47 -21.87 16.31 -22.63 15.09 -23.36 13.85 -24.03 12.55 -24.69 11.23 -25.29 9.86 -25.87 8.44 -26.42 7.01 -26.92 5.51 -27.4 3.99 -27.84 2.42 -28.26 0.83 -28.63 60.38 0 -0.89 31.37 -2.66 30.98 -4.37 30.54 -6.05 30.06 -7.69 29.56 -9.28 29 -10.82 28.39 -12.31 27.75 -13.77 27.07 -15.19 26.37 -16.55 25.6 -17.87 24.81 -19.15 23.97 -20.39 23.1 -21.58 22.19 -22.73 21.25 -23.84 20.25 -24.89 19.24 -25.93 18.18 -26.9 17.06 -27.83 15.93 -28.72 14.75 -29.58 13.53 -30.38 12.28 -31.14 10.97 -31.87 9.65 -32.52 8.26 -33.16 6.85 -33.74 5.39 -34.27 3.9 -34.76 2.38 -35.19 0.79 0 0zm-686.04 -611.42l60.38 0 0 0 0.83 28.63 2.42 28.26 3.99 27.84 5.51 27.4 7.01 26.92 8.44 26.42 9.86 25.87 11.23 25.29 12.55 24.69 13.85 24.03 15.09 23.36 16.31 22.63 17.47 21.87 18.61 21.08 19.7 20.27 20.75 19.39 21.76 18.49 22.74 17.56 23.66 16.59 24.54 15.57 25.4 14.53 26.2 13.45 26.96 12.35 27.7 11.18 28.38 10.01 29.03 8.79 29.64 7.52 30.21 6.25 30.74 4.91 31.25 3.56 31.7 2.16 32.13 0.73 0 53.82 -35.19 -0.79 -34.76 -2.38 -34.27 -3.9 -33.74 -5.39 -33.17 -6.85 -32.52 -8.26 -31.87 -9.65 -31.14 -10.97 -30.38 -12.28 -29.58 -13.53 -28.72 -14.75 -27.84 -15.93 -26.9 -17.07 -25.92 -18.17 -24.9 -19.24 -23.84 -20.25 -22.73 -21.25 -21.58 -22.19 -20.39 -23.1 -19.15 -23.97 -17.87 -24.81 -16.55 -25.6 -15.19 -26.37 -13.77 -27.07 -12.31 -27.75 -10.82 -28.39 -9.28 -29 -7.69 -29.56 -6.05 -30.06 -4.37 -30.54 -2.66 -30.98 -0.89 -31.37 0 0zm686.04 -611.45l0 53.82 0 0 -32.13 0.73 -31.7 2.16 -31.25 3.56 -30.74 4.91 -30.21 6.25 -29.64 7.53 -29.03 8.78 -28.38 10.01 -27.7 11.18 -26.96 12.35 -26.2 13.45 -25.4 14.53 -24.54 15.58 -23.67 16.59 -22.73 17.55 -21.76 18.5 -20.75 19.39 -19.7 20.26 -18.61 21.08 -17.47 21.89 -16.31 22.63 -15.09 23.35 -13.85 24.03 -12.55 24.68 -11.23 25.31 -9.86 25.87 -8.44 26.42 -7.01 26.92 -5.51 27.4 -3.99 27.85 -2.42 28.26 -0.83 28.63 -60.38 0 0.89 -31.37 2.66 -30.98 4.37 -30.55 6.05 -30.06 7.69 -29.56 9.28 -29 10.82 -28.39 12.31 -27.75 13.77 -27.08 15.19 -26.37 16.55 -25.59 17.87 -24.81 19.15 -23.97 20.39 -23.12 21.58 -22.18 22.73 -21.25 23.84 -20.26 24.91 -19.23 25.91 -18.17 26.9 -17.08 27.84 -15.93 28.72 -14.75 29.58 -13.53 30.38 -12.28 31.14 -10.97 31.87 -9.64 32.52 -8.27 33.17 -6.85 33.74 -5.39 34.27 -3.9 34.76 -2.38 35.19 -0.79 0 0z"/>
   </g>
   <path class="fil1" d="M1958.12 1936.55c-267.61,-509.1 -145.83,-857.81 236.55,-1117.88 -444.88,-222.06 -1027.04,44.14 -958.97,592.87 8.12,259.02 243.56,517.9 722.42,525.01z"/>
   <g>
    <path class="fil0" d="M232.99 1546.47l-47.22 -33.56 0 0 22.65 -24.03 23.75 -22.74 24.79 -21.45 25.77 -20.14 26.68 -18.84 27.54 -17.51 28.32 -16.19 29.05 -14.84 29.71 -13.52 30.31 -12.17 30.85 -10.82 31.33 -9.46 31.75 -8.1 32.1 -6.73 32.4 -5.36 32.63 -3.97 32.81 -2.6 32.92 -1.2 32.99 0.2 32.97 1.61 32.9 3.01 32.78 4.44 32.59 5.86 32.34 7.28 32.03 8.73 31.65 10.17 31.22 11.61 30.7 13.07 30.16 14.53 29.53 16 28.83 17.47 28.07 18.93 -37.66 42.08 -25.63 -17.29 -26.29 -15.93 -26.91 -14.58 -27.48 -13.23 -27.98 -11.91 -28.44 -10.59 -28.85 -9.27 -29.19 -7.95 -29.48 -6.64 -29.71 -5.34 -29.9 -4.04 -30.02 -2.75 -30.09 -1.47 -30.09 -0.18 -30.06 1.1 -29.95 2.36 -29.79 3.63 -29.58 4.9 -29.3 6.13 -28.97 7.4 -28.57 8.62 -28.15 9.88 -27.63 11.09 -27.09 12.32 -26.47 13.54 -25.82 14.75 -25.08 15.95 -24.3 17.16 -23.49 18.36 -22.59 19.55 -21.67 20.74 -20.67 21.93 0 0zm99 783.63l-37.66 42.08 0 0 -26.95 -20.18 -25.52 -21.17 -24.07 -22.1 -22.6 -22.97 -21.13 -23.77 -19.64 -24.54 -18.17 -25.24 -16.67 -25.9 -15.16 -26.48 -13.65 -27.01 -12.15 -27.5 -10.61 -27.93 -9.09 -28.28 -7.55 -28.62 -6.01 -28.87 -4.47 -29.09 -2.9 -29.25 -1.34 -29.33 0.22 -29.39 1.8 -29.4 3.39 -29.33 4.96 -29.21 6.58 -29.04 8.18 -28.83 9.79 -28.54 11.41 -28.21 13.03 -27.82 14.67 -27.38 16.3 -26.87 17.95 -26.3 19.6 -25.7 21.24 -25.02 47.22 33.56 -19.4 22.84 -17.88 23.44 -16.35 23.98 -14.86 24.49 -13.37 24.94 -11.87 25.34 -10.39 25.71 -8.93 26.02 -7.46 26.27 -5.98 26.48 -4.54 26.65 -3.09 26.75 -1.64 26.82 -0.2 26.83 1.22 26.79 2.66 26.69 4.07 26.55 5.49 26.35 6.89 26.12 8.29 25.82 9.69 25.47 11.07 25.08 12.45 24.63 13.82 24.14 15.19 23.6 16.55 23 17.9 22.36 19.25 21.67 20.6 20.93 21.93 20.14 23.28 19.31 24.61 18.42 0 0zm879.24 -88.23l47.22 33.56 0 0 -22.65 24.03 -23.75 22.74 -24.79 21.45 -25.77 20.14 -26.69 18.84 -27.53 17.51 -28.32 16.18 -29.05 14.85 -29.71 13.52 -30.32 12.17 -30.84 10.82 -31.34 9.46 -31.75 8.1 -32.1 6.73 -32.4 5.36 -32.63 3.97 -32.81 2.6 -32.93 1.19 -32.97 -0.2 -32.97 -1.6 -32.91 -3.01 -32.78 -4.44 -32.59 -5.86 -32.34 -7.29 -32.03 -8.72 -31.64 -10.17 -31.22 -11.61 -30.72 -13.08 -30.14 -14.53 -29.53 -16 -28.83 -17.47 -28.07 -18.93 37.66 -42.08 25.63 17.29 26.29 15.93 26.91 14.58 27.48 13.25 27.98 11.9 28.44 10.59 28.84 9.27 29.19 7.94 29.48 6.65 29.71 5.34 29.9 4.04 30.01 2.75 30.09 1.46 30.11 0.18 30.05 -1.09 29.95 -2.36 29.79 -3.63 29.58 -4.9 29.3 -6.13 28.97 -7.4 28.58 -8.62 28.14 -9.88 27.64 -11.09 27.09 -12.32 26.47 -13.53 25.8 -14.76 25.09 -15.95 24.31 -17.16 23.49 -18.36 22.59 -19.55 21.67 -20.74 20.67 -21.93 0 0zm-99 -783.64l37.66 -42.08 0 0 26.95 20.18 25.52 21.17 24.07 22.1 22.6 22.97 21.13 23.77 19.65 24.54 18.17 25.25 16.66 25.89 15.17 26.48 13.65 27.02 12.14 27.49 10.61 27.93 9.09 28.28 7.56 28.62 6 28.87 4.47 29.09 2.9 29.24 1.35 29.35 -0.23 29.4 -1.8 29.38 -3.38 29.33 -4.98 29.21 -6.56 29.05 -8.18 28.82 -9.79 28.54 -11.41 28.21 -13.04 27.83 -14.66 27.37 -16.31 26.87 -17.95 26.31 -19.6 25.7 -21.24 25.02 -47.22 -33.56 19.4 -22.84 17.88 -23.44 16.35 -23.99 14.87 -24.49 13.36 -24.93 11.88 -25.35 10.39 -25.71 8.93 -26.02 7.44 -26.26 6 -26.49 4.54 -26.65 3.08 -26.75 1.64 -26.82 0.21 -26.82 -1.23 -26.79 -2.66 -26.7 -4.07 -26.55 -5.48 -26.35 -6.9 -26.12 -8.29 -25.82 -9.69 -25.47 -11.06 -25.09 -12.45 -24.62 -13.83 -24.14 -15.18 -23.61 -16.55 -22.99 -17.91 -22.36 -19.25 -21.67 -20.6 -20.93 -21.93 -20.14 -23.28 -19.31 -24.61 -18.42 0 0z"/>
   </g>
   <path class="fil1" d="M389.03 2398.4c470.24,-355.3 521.24,-709.32 300.22,-1079.09 496.69,-35.97 892.43,411.71 581.4,874.61 -123.12,222.55 -444.28,355.24 -881.62,204.48z"/>
   <path class="fil0" d="M1388.1 3309.99c40.95,12.54 86.54,21.45 136.51,27.02 49.96,5.58 104.28,8.08 163.26,8.08 106.76,-0.27 196.31,-15.32 269.48,-45.41 72.89,-30.09 128.04,-73.55 165.45,-130.39 37.68,-57.11 56.24,-125.92 56.51,-207 0,-42.07 -5.46,-78.84 -16.11,-110.88 -10.92,-32.32 -27.3,-61.02 -48.87,-86.37 -21.57,-25.35 -48.6,-49.31 -80.81,-71.32 -32.22,-22.01 -69.9,-44.02 -113.04,-65.75 -25.93,-13.1 -49.68,-23.96 -71.25,-32.6 -21.57,-8.64 -40.14,-16.44 -55.97,-23.4 -15.83,-6.97 -27.85,-15.05 -36.59,-23.41 -8.73,-8.63 -13.1,-19.5 -13.1,-32.59 0,-18.67 9.83,-32.88 29.21,-43.19 19.66,-10.03 48.6,-15.32 87.09,-15.32 36.87,0 75.91,3.9 117.4,11.98 41.5,7.8 85.74,18.67 133.24,33.15l0 -324.29c-40.13,-10.87 -83.82,-19.23 -131.32,-24.8 -47.23,-5.85 -98.01,-8.64 -152.08,-8.64 -69.89,0.28 -132.69,9.48 -188.39,27.86 -55.69,18.39 -103.47,44.02 -142.79,77.46 -39.58,33.15 -69.89,72.43 -90.91,117.57 -20.75,45.13 -31.4,94.45 -31.67,148.22 0,42.9 6.28,81.07 18.29,114.5 12.28,33.44 30.58,63.8 54.88,90.55 24.3,27.02 54.33,52.1 90.64,75.22 36.04,23.13 78.08,45.42 126.14,67.42 27.85,12.26 52.15,22.57 72.35,30.37 20.21,8.08 36.05,16.44 46.96,25.08 10.92,8.63 16.65,20.34 16.65,34.82 0,19.51 -9.28,34.83 -27.84,46.25 -18.57,11.15 -45.87,17 -81.9,17.27 -38.51,-0.27 -83.01,-3.62 -133.52,-10.3 -50.5,-6.69 -106.48,-15.33 -167.9,-26.47l0 329.31zm820.7 -1186.58l402.44 0 236.71 403.98 236.71 -403.98 399.98 0 -455.95 695.4 0 501.21 -363.12 0 0 -501.21 -456.77 -695.4zm1338.1 1186.58c40.95,12.54 86.54,21.45 136.5,27.02 49.96,5.58 104.29,8.08 163.27,8.08 106.75,-0.27 196.3,-15.32 269.48,-45.41 72.89,-30.09 128.04,-73.55 165.45,-130.39 37.68,-57.11 56.24,-125.92 56.51,-207 0,-42.07 -5.46,-78.84 -16.11,-110.88 -10.92,-32.32 -27.3,-61.02 -48.87,-86.37 -21.57,-25.35 -48.6,-49.31 -80.81,-71.32 -32.22,-22.01 -69.9,-44.02 -113.04,-65.75 -25.93,-13.1 -49.68,-23.96 -71.25,-32.6 -21.57,-8.64 -40.14,-16.44 -55.97,-23.4 -15.83,-6.97 -27.85,-15.05 -36.59,-23.41 -8.73,-8.63 -13.1,-19.5 -13.1,-32.59 0,-18.67 9.83,-32.88 29.21,-43.19 19.66,-10.03 48.6,-15.32 87.09,-15.32 36.87,0 75.91,3.9 117.4,11.98 41.5,7.8 85.74,18.67 133.24,33.15l0 -324.29c-40.13,-10.87 -83.82,-19.23 -131.32,-24.8 -47.23,-5.85 -98.01,-8.64 -152.08,-8.64 -69.89,0.28 -132.69,9.48 -188.39,27.86 -55.69,18.39 -103.47,44.02 -142.79,77.46 -39.58,33.15 -69.89,72.43 -90.91,117.57 -20.76,45.13 -31.4,94.45 -31.67,148.22 0,42.9 6.28,81.07 18.29,114.5 12.28,33.44 30.58,63.8 54.88,90.55 24.29,27.02 54.33,52.1 90.64,75.22 36.04,23.13 78.08,45.42 126.14,67.42 27.85,12.26 52.14,22.57 72.35,30.37 20.21,8.08 36.04,16.44 46.96,25.08 10.92,8.63 16.65,20.34 16.65,34.82 0,19.51 -9.28,34.83 -27.84,46.25 -18.57,11.15 -45.87,17 -81.91,17.27 -38.5,-0.27 -83,-3.62 -133.51,-10.3 -50.5,-6.69 -106.48,-15.33 -167.9,-26.47l0 329.31zm1050.04 30.09l360.39 -36.78 0 -807.39 206.4 0 0 -336 -735.52 0 -78.63 336 247.36 0 0 844.17zm658.53 -20.06l648.71 0 70.44 -327.64 -358.76 0 0 -117.01 214.6 0 0 -297.55 -214.6 0 0 -108.66 337.46 0 -67.17 -309.25 -630.68 0 0 1160.11zm743.72 -8.36l353.84 26.75 57.34 -580.06 211.32 613.49 211.32 -613.49 50.78 580.06 357.11 -26.75 -134.32 -1151.75 -322.72 0 -152.34 483.1 -150.71 -483.1 -326 0 -155.62 1151.75zm1336.73 -1.67c40.95,12.54 86.54,21.45 136.51,27.02 49.96,5.58 104.28,8.08 163.26,8.08 106.76,-0.27 196.31,-15.32 269.48,-45.41 72.89,-30.09 128.04,-73.55 165.45,-130.39 37.68,-57.11 56.24,-125.92 56.51,-207 0,-42.07 -5.46,-78.84 -16.11,-110.88 -10.92,-32.32 -27.3,-61.02 -48.87,-86.37 -21.57,-25.35 -48.6,-49.31 -80.81,-71.32 -32.22,-22.01 -69.9,-44.02 -113.04,-65.75 -25.93,-13.1 -49.68,-23.96 -71.25,-32.6 -21.57,-8.64 -40.14,-16.44 -55.97,-23.4 -15.83,-6.97 -27.85,-15.05 -36.59,-23.41 -8.73,-8.63 -13.1,-19.5 -13.1,-32.59 0,-18.67 9.83,-32.88 29.21,-43.19 19.66,-10.03 48.6,-15.32 87.09,-15.32 36.87,0 75.91,3.9 117.4,11.98 41.5,7.8 85.74,18.67 133.24,33.15l0 -324.29c-40.13,-10.87 -83.82,-19.23 -131.32,-24.8 -47.23,-5.85 -98.01,-8.64 -152.08,-8.64 -69.89,0.28 -132.69,9.48 -188.39,27.86 -55.69,18.39 -103.47,44.02 -142.79,77.46 -39.58,33.15 -69.89,72.43 -90.91,117.57 -20.75,45.13 -31.4,94.45 -31.67,148.22 0,42.9 6.28,81.07 18.29,114.5 12.28,33.44 30.58,63.8 54.88,90.55 24.3,27.02 54.33,52.1 90.64,75.22 36.04,23.13 78.08,45.42 126.14,67.42 27.85,12.26 52.15,22.57 72.35,30.37 20.21,8.08 36.05,16.44 46.96,25.08 10.92,8.63 16.65,20.34 16.65,34.82 0,19.51 -9.28,34.83 -27.84,46.25 -18.57,11.15 -45.87,17 -81.9,17.27 -38.51,-0.27 -83.01,-3.62 -133.52,-10.3 -50.5,-6.69 -106.48,-15.33 -167.9,-26.47l0 329.31zm2127.94 -789.01l-49.15 -362.74c-28.66,-9.2 -57.88,-15.6 -87.91,-19.51 -30.03,-3.9 -61.15,-5.57 -93.92,-5.57 -52.15,0 -102.38,6.13 -150.99,18.67 -48.59,12.54 -94.73,30.92 -138.14,55.16 -43.69,24.24 -83.54,54.33 -120.4,89.99 -58.16,56.28 -101.84,121.47 -131.33,195.86 -29.21,74.39 -43.96,156.58 -43.96,247.12 0.28,90.55 15.02,173.02 44.23,247.41 29.22,74.38 70.71,138.46 124.5,192.23 53.78,53.77 117.68,95.29 191.94,124.54 74.26,29.25 156.72,44.02 247.09,44.3 27.03,0 54.88,-1.67 83.27,-5.02 28.66,-3.34 57.61,-8.36 87.1,-15.04l47.5 -374.45c-28.67,18.39 -58.16,32.32 -89.01,41.52 -30.85,9.19 -63.34,13.65 -97.74,13.65 -57.06,-0.28 -106.48,-11.98 -147.98,-34.55 -41.5,-22.57 -73.44,-54.05 -96.11,-94.17 -22.65,-40.4 -34.12,-87.2 -34.39,-140.42 0.54,-53.77 12.01,-100.85 34.94,-141.25 22.93,-40.12 54.61,-71.32 95.02,-93.89 40.13,-22.29 86.27,-33.71 138.69,-33.99 60.61,0 122.86,16.72 186.75,50.15zm132.68 825.79l357.12 -28.42 0 -474.74 178.56 503.16 375.13 -48.48 -209.68 -493.13c56.79,-29.53 99.65,-69.65 129.14,-120.36 29.49,-50.71 44.24,-110.88 44.51,-180.54 0,-73.27 -16.11,-135.4 -48.33,-186.66 -31.94,-51.26 -79.72,-90.27 -143.07,-117.01 -63.33,-27.03 -142.24,-40.4 -236.16,-40.68l-447.22 0 0 1186.86zm357.12 -870.92l4.92 0c50.24,0.28 88.18,12.26 114.39,36.22 26.22,23.68 39.59,57.95 39.59,102.52 0,44.58 -13.37,79.13 -39.59,103.36 -26.21,24.52 -64.15,36.78 -114.39,37.06l-4.92 0 0 -279.16zm630.68 844.17l648.71 0 70.44 -327.64 -358.76 0 0 -117.01 214.61 0 0 -297.55 -214.61 0 0 -108.66 337.46 0 -67.16 -309.25 -630.69 0 0 1160.11zm696.22 -11.7l380.05 36.77 60.61 -208.95 299.78 0 57.34 202.27 389.87 -31.76 -375.13 -1146.74 -430.84 0 -381.68 1148.41zm502.91 -466.39l88.46 -344.35 81.9 344.35 -170.36 0zm825.62 498.15l360.39 -36.78 0 -807.39 206.4 0 0 -336 -735.52 0 -78.63 336 247.36 0 0 844.17zm1200.75 -1208.59c-82.18,0.28 -158.89,14.49 -230.15,42.63 -71.27,28.14 -134.88,69.09 -190.84,122.86 -57.34,56 -101.03,121.2 -130.51,195.03 -29.77,74.1 -44.5,156.85 -44.78,247.95 0.28,91.11 15.01,173.85 44.78,247.68 29.48,74.11 73.17,139.31 130.51,195.31 55.96,53.77 119.57,94.72 190.84,122.86 71.26,28.14 147.97,42.35 230.15,42.63 82.46,-0.28 159.45,-14.49 230.98,-42.63 71.81,-28.14 135.7,-69.09 191.66,-122.86 57.61,-56 101.03,-121.2 130.79,-195.31 29.49,-73.83 44.5,-156.57 44.5,-247.68 0,-90.54 -15.01,-173.29 -44.5,-247.95 -29.76,-74.67 -73.18,-139.59 -130.79,-195.03 -55.96,-54.33 -119.85,-95.56 -191.66,-123.42 -71.53,-27.86 -148.52,-42.07 -230.98,-42.07zm0 874.26c-47.77,-0.28 -89,-11.14 -123.67,-32.59 -34.68,-21.46 -61.43,-51.82 -80.27,-91.39 -18.84,-39.84 -28.4,-86.92 -28.67,-141.81 0.27,-54.88 9.83,-102.24 28.67,-141.81 18.84,-39.56 45.59,-70.2 80.27,-91.38 34.67,-21.45 75.9,-32.32 123.67,-32.59 47.79,0.27 89.29,11.14 124.23,32.59 34.95,21.18 61.98,51.82 81.09,91.38 19.11,39.57 28.67,86.93 28.94,141.81 -0.27,54.89 -9.83,101.97 -28.94,141.81 -19.11,39.57 -46.14,69.93 -81.09,91.39 -34.94,21.45 -76.44,32.31 -124.23,32.59zm712.59 341.02l357.12 -28.42 0 -474.74 178.56 503.16 375.14 -48.48 -209.69 -493.13c56.79,-29.53 99.65,-69.65 129.14,-120.36 29.49,-50.71 44.24,-110.88 44.51,-180.54 0,-73.27 -16.11,-135.4 -48.33,-186.66 -31.94,-51.26 -79.72,-90.27 -143.07,-117.01 -63.33,-27.03 -142.24,-40.4 -236.16,-40.68l-447.22 0 0 1186.86zm357.12 -870.92l4.92 0c50.24,0.28 88.18,12.26 114.4,36.22 26.21,23.68 39.59,57.95 39.59,102.52 0,44.58 -13.38,79.13 -39.59,103.36 -26.22,24.52 -64.16,36.78 -114.4,37.06l-4.92 0 0 -279.16z"/>
  </g>
 </g>
</svg>
